<svg width="181" height="181" viewBox="0 0 181 181" xmlns="http://www.w3.org/2000/svg"><title>logos</title><g transform="translate(1 1)" fill="none" fill-rule="evenodd"><circle fill="#9BD095" cx="89.5" cy="89.5" r="89.5"/><text font-family="Lato" font-size="90" font-weight="bold" fill="#FFF"><tspan x="29.566" y="122.33">L</tspan></text><path d="M90.5 1.5v176" stroke="#616161" stroke-width="3" stroke-linecap="square"/><path d="M122.5 74.5h19l-18.69 36.508 18.414.492-18.724-37z" stroke="#616161"/><text transform="rotate(-180 82.477 73.5)" font-family="Lato" font-size="90" font-weight="bold" fill="#FFF"><tspan x=".955" y="90">A</tspan></text><path d="M142.38 81.54l-6.724 18.21-3.35-6.76 6.115-11.45h3.96z" fill="#FF7474"/><path d="M126.626 81.577h10.826l-5.504 10.634-5.322-10.633z" fill="#5F95E1"/><path d="M121.596 81.555h3.934l5.874 11.593-3.214 6.412-6.594-18.005z" fill="#FFA16D"/><path d="M131.963 94.294l3.29 6.457-3.29 10.475-3.307-10.556 3.307-6.376z" fill="#FFEA7E"/></g></svg>