<svg width="604" height="468" viewBox="0 0 604 468" xmlns="http://www.w3.org/2000/svg"><title>Slice 1</title><g fill="none" fill-rule="evenodd"><path d="M599.765 467H146.007L374.73 83.235 601.74 464.13c.78 1.308-.29 2.87-1.975 2.87z" fill="#FFF"/><path d="M599.765 467H146.007L374.73 83.235 601.74 464.13c.78 1.308-.29 2.87-1.975 2.87z" stroke="#B6B6B6" stroke-width="2" stroke-linecap="round" stroke-linejoin="round"/><path d="M333.145 229.43l20.793-18.273 20.793 18.274 20.794-18.273 20.794 18.274 29.89-26.268L374.73 83.235l-71.475 119.927 29.89 26.27z" fill="#FFF"/><path d="M333.145 229.43l20.793-18.273 20.793 18.274 20.794-18.273 20.794 18.274 29.89-26.268L374.73 83.235l-71.475 119.927 29.89 26.27z" stroke="#B6B6B6" stroke-width="2" stroke-linecap="round" stroke-linejoin="round"/><path d="M121.41 304L1.38 465.75c-.405.54.042 1.252.77 1.252h143.857l80.677-135.378-29.484-31.377c-20.242-21.527-58.44-19.636-75.79 3.756z" fill="#B6B6B6"/><path d="M121.41 304L1.38 465.75c-.405.54.042 1.252.77 1.252h143.857l80.677-135.378-29.484-31.377c-20.242-21.527-58.44-19.636-75.79 3.756z" stroke="#B6B6B6" stroke-width="2" stroke-linecap="round" stroke-linejoin="round"/><path d="M197.99 64.96c0 35.325-32.583 63.962-72.776 63.962s-72.776-28.637-72.776-63.96C52.438 29.635 85.02 1 125.214 1s72.776 28.636 72.776 63.96z" fill="#B6B6B6"/><path d="M197.99 64.96c0 35.325-32.583 63.962-72.776 63.962s-72.776-28.637-72.776-63.96C52.438 29.635 85.02 1 125.214 1s72.776 28.636 72.776 63.96z" stroke="#B6B6B6" stroke-width="2" stroke-linecap="round" stroke-linejoin="round"/><path d="M291.56 304.786V467m0-164.47c0 20.202-18.61 36.548-41.587 36.548m41.586 0c0 30.3-27.905 54.824-62.38 54.824m62.38-18.275c0 40.405-37.21 73.098-83.173 73.098M291.56 302.53c0 20.202 18.598 36.548 41.585 36.548m-41.586 0c0 30.3 27.893 54.824 62.378 54.824m-62.38-18.275c0 40.405 37.2 73.098 83.173 73.098m83.174-143.94V467m0-164.47c0 20.202-18.61 36.548-41.586 36.548m41.586 0c0 30.3-27.905 54.824-62.38 54.824m62.38-18.275c0 40.405-37.21 73.098-83.173 73.098m83.174-146.196c0 20.202 18.6 36.548 41.586 36.548m-41.586 0c0 30.3 27.894 54.824 62.38 54.824m-62.38-18.275c0 40.405 37.2 73.098 83.172 73.098m-16.634-316.15c0-27.273-25.118-49.34-56.142-49.34m56.142 49.34c0-18.182 16.738-32.893 37.427-32.893" stroke="#B7B7B7" stroke-width="2" stroke-linecap="round" stroke-linejoin="round"/></g></svg>