<?xml version="1.0" encoding="UTF-8" standalone="no"?>
<svg width="181px" height="181px" viewBox="0 0 181 181" version="1.1" xmlns="http://www.w3.org/2000/svg" xmlns:xlink="http://www.w3.org/1999/xlink" xmlns:sketch="http://www.bohemiancoding.com/sketch/ns">
    <!-- Generator: Sketch 3.3.3 (12081) - http://www.bohemiancoding.com/sketch -->
    <title>logos</title>
    <desc>Created with Sketch.</desc>
    <defs></defs>
    <g id="Page-1" stroke="none" stroke-width="1" fill="none" fill-rule="evenodd" sketch:type="MSPage">
        <path id="Path-2" stroke="#979797" sketch:type="MSShapeGroup" d=""></path>
        <path id="Path-3" stroke="#979797" sketch:type="MSShapeGroup" d=""></path>
        <g id="First-Logo" sketch:type="MSLayerGroup" transform="translate(1.000000, 1.000000)">
            <circle id="Oval-1" stroke-opacity="0" stroke="#979797" fill="#9BD095" sketch:type="MSShapeGroup" cx="89.5" cy="89.5" r="89.5"></circle>
            <path id="Path-1" stroke="#979797" sketch:type="MSShapeGroup" d=""></path>
            <text id="L" sketch:type="MSTextLayer" font-family="Lato" font-size="90" font-weight="bold" fill="#FFFFFF">
                <tspan x="29.5664062" y="122.329687">L</tspan>
            </text>
            <path d="M90.5,1.5 L90.5,177.5" id="Line" stroke="#616161" stroke-width="3" stroke-linecap="square" sketch:type="MSShapeGroup"></path>
            <g id="Group" transform="translate(96.000000, 37.000000)">
                <path d="M26.5,37.5 L45.5,37.5 L26.8111526,74.0075668 L45.2235237,74.5 L26.5,37.5 Z" id="Path-4" stroke="#616161" sketch:type="MSShapeGroup"></path>
                <text id="A" sketch:type="MSTextLayer" transform="translate(34.477344, 55.000000) rotate(-180.000000) translate(-34.477344, -55.000000) " font-family="Lato" font-size="90" font-weight="bold" fill="#FFFFFF">
                    <tspan x="0.9546875" y="90">A</tspan>
                </text>
                <path d="M46.3797531,44.5392745 L39.6555989,62.7501624 L36.3055814,55.9909093 L42.4210613,44.5392745 L46.3797531,44.5392745 Z" id="Path-6" fill="#FF7474" sketch:type="MSShapeGroup"></path>
                <path d="M30.6263021,44.5771484 L41.4516605,44.5771484 L35.9475911,55.2114258 L30.6263021,44.5771484 Z" id="Path-7" fill="#5F95E1" sketch:type="MSShapeGroup"></path>
                <path d="M25.5955404,44.5553385 L29.5304362,44.5553385 L35.4042966,56.1484372 L32.1899412,62.5600592 L25.5955404,44.5553385 Z" id="Path-8" fill="#FFA16D" sketch:type="MSShapeGroup"></path>
                <path d="M35.9625651,57.2941081 L39.2522786,63.7513021 L35.9625651,74.2247721 L32.6564128,63.6686198 L35.9625651,57.2941081 Z" id="Path-9" fill="#FFEA7E" sketch:type="MSShapeGroup"></path>
            </g>
        </g>
    </g>
</svg>