<?xml version="1.0" encoding="UTF-8" standalone="no"?>
<svg width="604px" height="468px" viewBox="0 0 604 468" version="1.1" xmlns="http://www.w3.org/2000/svg" xmlns:xlink="http://www.w3.org/1999/xlink" xmlns:sketch="http://www.bohemiancoding.com/sketch/ns">
    <!-- Generator: Sketch 3.3.3 (12081) - http://www.bohemiancoding.com/sketch -->
    <title>Slice 1</title>
    <desc>Created with Sketch.</desc>
    <defs></defs>
    <g id="Page-1" stroke="none" stroke-width="1" fill="none" fill-rule="evenodd" sketch:type="MSPage">
        <g id="Mountainside" sketch:type="MSLayerGroup" transform="translate(1.000000, 1.000000)">
            <path d="M598.764741,466 L145.007241,466 L373.731379,82.2352941 L600.740086,463.130902 C601.519828,464.437529 600.448983,466 598.764741,466 L598.764741,466 Z" id="Fill-2416" fill="#FFFFFF" sketch:type="MSShapeGroup"></path>
            <path d="M598.764741,466 L145.007241,466 L373.731379,82.2352941 L600.740086,463.130902 C601.519828,464.437529 600.448983,466 598.764741,466 L598.764741,466 Z" id="Stroke-2417" stroke="#B6B6B6" stroke-width="2" stroke-linecap="round" stroke-linejoin="round" sketch:type="MSShapeGroup"></path>
            <path d="M332.145172,228.431373 L352.938276,210.156863 L373.731379,228.431373 L394.524483,210.156863 L415.317586,228.431373 L445.207672,202.161765 L373.731379,82.2352941 L302.255086,202.161765 L332.145172,228.431373 L332.145172,228.431373 Z" id="Fill-2418" fill="#FFFFFF" sketch:type="MSShapeGroup"></path>
            <path d="M332.145172,228.431373 L352.938276,210.156863 L373.731379,228.431373 L394.524483,210.156863 L415.317586,228.431373 L445.207672,202.161765 L373.731379,82.2352941 L302.255086,202.161765 L332.145172,228.431373 L332.145172,228.431373 Z" id="Stroke-2419" stroke="#B6B6B6" stroke-width="2" stroke-linecap="round" stroke-linejoin="round" sketch:type="MSShapeGroup"></path>
            <path d="M120.409,303.00051 L0.380810345,464.748196 C-0.0246551724,465.287294 0.422396552,466 1.15015517,466 L145.007241,466 L225.684483,330.622431 L196.199862,299.245098 C175.957776,277.717725 137.760845,279.609137 120.409,303.00051 L120.409,303.00051 Z" id="Fill-2420" fill="#B6B6B6" sketch:type="MSShapeGroup"></path>
            <path d="M120.409,303.00051 L0.380810345,464.748196 C-0.0246551724,465.287294 0.422396552,466 1.15015517,466 L145.007241,466 L225.684483,330.622431 L196.199862,299.245098 C175.957776,277.717725 137.760845,279.609137 120.409,303.00051 L120.409,303.00051 Z" id="Stroke-2421" stroke="#B6B6B6" stroke-width="2" stroke-linecap="round" stroke-linejoin="round" sketch:type="MSShapeGroup"></path>
            <path d="M196.99,63.9607843 C196.99,99.2854118 164.407207,127.921569 124.214138,127.921569 C84.021069,127.921569 51.4382759,99.2854118 51.4382759,63.9607843 C51.4382759,28.6361569 84.021069,0 124.214138,0 C164.407207,0 196.99,28.6361569 196.99,63.9607843 L196.99,63.9607843 Z" id="Fill-2422" fill="#B6B6B6" sketch:type="MSShapeGroup"></path>
            <path d="M196.99,63.9607843 C196.99,99.2854118 164.407207,127.921569 124.214138,127.921569 C84.021069,127.921569 51.4382759,99.2854118 51.4382759,63.9607843 C51.4382759,28.6361569 84.021069,0 124.214138,0 C164.407207,0 196.99,28.6361569 196.99,63.9607843 L196.99,63.9607843 Z" id="Stroke-2423" stroke="#B6B6B6" stroke-width="2" stroke-linecap="round" stroke-linejoin="round" sketch:type="MSShapeGroup"></path>
            <path d="M290.558966,303.786314 L290.558966,466 M290.558966,301.529412 C290.558966,321.731882 271.949138,338.078431 248.972759,338.078431 M290.558966,338.078431 C290.558966,368.377569 262.654621,392.901961 228.179655,392.901961 M290.558966,374.627451 C290.558966,415.032392 253.349707,447.72549 207.386552,447.72549 M290.558966,301.529412 C290.558966,321.731882 309.158397,338.078431 332.145172,338.078431 M290.558966,338.078431 C290.558966,368.377569 318.452914,392.901961 352.938276,392.901961 M290.558966,374.627451 C290.558966,415.032392 327.757828,447.72549 373.731379,447.72549 M456.903793,303.786314 L456.903793,466 M456.903793,301.529412 C456.903793,321.731882 438.293966,338.078431 415.317586,338.078431 M456.903793,338.078431 C456.903793,368.377569 428.999448,392.901961 394.524483,392.901961 M456.903793,374.627451 C456.903793,415.032392 419.694534,447.72549 373.731379,447.72549 M456.903793,301.529412 C456.903793,321.731882 475.503224,338.078431 498.49,338.078431 M456.903793,338.078431 C456.903793,368.377569 484.797741,392.901961 519.283103,392.901961 M456.903793,374.627451 C456.903793,415.032392 494.102655,447.72549 540.076207,447.72549 M523.441724,131.576471 C523.441724,104.301765 498.323655,82.2352941 467.300345,82.2352941 M523.441724,131.576471 C523.441724,113.393333 540.180172,98.6823529 560.86931,98.6823529" id="Stroke-2424" stroke="#B7B7B7" stroke-width="2" stroke-linecap="round" stroke-linejoin="round" sketch:type="MSShapeGroup"></path>
        </g>
    </g>
</svg>