<?xml version="1.0" encoding="UTF-8" standalone="no"?>
<svg width="1024px" height="464px" viewBox="0 0 1024 464" version="1.1" xmlns="http://www.w3.org/2000/svg" xmlns:xlink="http://www.w3.org/1999/xlink" xmlns:sketch="http://www.bohemiancoding.com/sketch/ns">
    <!-- Generator: Sketch 3.3.3 (12081) - http://www.bohemiancoding.com/sketch -->
    <title>Slice 1</title>
    <desc>Created with Sketch.</desc>
    <defs>
        <filter x="-50%" y="-50%" width="200%" height="200%" filterUnits="objectBoundingBox" id="filter-1">
            <feOffset dx="0" dy="-3" in="SourceAlpha" result="shadowOffsetInner1"></feOffset>
            <feGaussianBlur stdDeviation="0" in="shadowOffsetInner1" result="shadowBlurInner1"></feGaussianBlur>
            <feComposite in="shadowBlurInner1" in2="SourceAlpha" operator="arithmetic" k2="-1" k3="1" result="shadowInnerInner1"></feComposite>
            <feColorMatrix values="0 0 0 0 0.578603316   0 0 0 0 0.578603316   0 0 0 0 0.578603316  0 0 0 0.7 0" in="shadowInnerInner1" type="matrix" result="shadowMatrixInner1"></feColorMatrix>
            <feOffset dx="0" dy="-2" in="SourceAlpha" result="shadowOffsetInner2"></feOffset>
            <feGaussianBlur stdDeviation="0" in="shadowOffsetInner2" result="shadowBlurInner2"></feGaussianBlur>
            <feComposite in="shadowBlurInner2" in2="SourceAlpha" operator="arithmetic" k2="-1" k3="1" result="shadowInnerInner2"></feComposite>
            <feColorMatrix values="0 0 0 0 0.502577594   0 0 0 0 0.502577594   0 0 0 0 0.502577594  0 0 0 0.7 0" in="shadowInnerInner2" type="matrix" result="shadowMatrixInner2"></feColorMatrix>
            <feMerge>
                <feMergeNode in="SourceGraphic"></feMergeNode>
                <feMergeNode in="shadowMatrixInner1"></feMergeNode>
                <feMergeNode in="shadowMatrixInner2"></feMergeNode>
            </feMerge>
        </filter>
        <path id="path-2" d="M10.4655172,27.0945053 C11.7931034,22 12.8448276,0 12.8448276,0 L67.1551724,0 C67.1551724,0 68.2746017,21.9131446 69.8632948,27.0945053 C71.4519879,32.275866 75.8448276,35 78.5,37 L1.5,37 C4.15517241,35 9.13793103,32.1890106 10.4655172,27.0945053 Z"></path>
    </defs>
    <g id="Page-1" stroke="none" stroke-width="1" fill="none" fill-rule="evenodd" sketch:type="MSPage">
        <g id="Desk" sketch:type="MSLayerGroup" transform="translate(0.000000, 6.000000)">
            <g id="desk" transform="translate(0.000000, 349.000000)" fill="#23222E" sketch:type="MSShapeGroup">
                <rect id="Rectangle-7" x="0" y="0" width="1024" height="49.6684492"></rect>
                <g id="Rectangle-7-+-Rectangle-7" transform="translate(80.355556, 24.834225)">
                    <rect id="Rectangle-7" x="0" y="0" width="120.888889" height="83.1657754"></rect>
                    <rect id="Rectangle-7" x="742.4" y="0" width="120.888889" height="83.1657754"></rect>
                </g>
            </g>
            <g id="lamp" transform="translate(16.000000, 103.000000)" sketch:type="MSShapeGroup">
                <path d="M7.84285714,108.037356 L31.744898,256.353448" id="Line" stroke="#23222E" stroke-width="10" stroke-linecap="square"></path>
                <path d="M92.9938776,29.7385057 L8.21632653,104.649425" id="Line" stroke="#23222E" stroke-width="10" stroke-linecap="square"></path>
                <ellipse id="Oval-4" fill="#69D3E9" cx="8.21632653" cy="104.649425" rx="8.21632653" ry="8.2816092"></ellipse>
                <g id="Oval-1-+-Oval-2" transform="translate(117.946869, 63.928660) rotate(-75.000000) translate(-117.946869, -63.928660) translate(66.946869, 9.928660)">
                    <ellipse id="Oval-1" fill="#69E9B9" cx="70.4411883" cy="20.0624449" rx="19.4421115" ry="19.7861231"></ellipse>
                    <ellipse id="Oval-1" fill="#FFEA6E" cx="45.8450636" cy="74.8659927" rx="19.4421115" ry="19.7861231"></ellipse>
                    <path d="M91.7282358,102.713377 C97.8921231,93.3948195 101.519005,81.9840125 101.519005,69.6581975 C101.519005,38.2206686 77.9251479,12.735516 48.8206501,12.735516 C26.2935037,12.735516 7.06772757,28.0034186 -0.471469219,49.4818522 L91.7282358,102.713377 Z" id="Oval-2" fill="#69E9B9"></path>
                </g>
                <path d="M50.7771707,261.247132 C50.7869176,260.997392 50.7918367,260.746401 50.7918367,260.494253 C50.7918367,250.099238 42.4314397,241.672414 32.1183673,241.672414 C21.805295,241.672414 13.444898,250.099238 13.444898,260.494253 C13.444898,260.746401 13.4498171,260.997392 13.4595639,261.247132 L50.777171,261.247126 Z" id="Oval-4" fill="#69D3E9"></path>
            </g>
            <g id="clock" transform="translate(469.000000, 0.000000)" sketch:type="MSShapeGroup">
                <circle id="Oval-6" stroke="#4B4B4B" stroke-width="11" fill="#FEFFFD" cx="43.5" cy="43.5" r="43.5"></circle>
                <circle id="Oval-7" fill="#69E9B9" cx="43.5" cy="43.5" r="26.7289157"></circle>
                <path d="M40.6174699,15.4608434 L43.7620482,43.2379518" id="Line" stroke="#E96969" stroke-width="7" stroke-linecap="square"></path>
                <path d="M70.3303676,25.1566265 L42.189759,41.4036145" id="Line" stroke="#E9BF69" stroke-width="7" stroke-linecap="square"></path>
            </g>
            <g id="coffee-cup" transform="translate(930.000000, 313.000000)" sketch:type="MSShapeGroup">
                <path d="M50.5428766,38.6419026 L50.5428766,23.7140197 C55.0737798,23.7140197 58.7474589,27.0558728 58.7474589,31.176641 C58.7474589,35.2991693 55.0737798,38.6419026 50.5428766,38.6419026 L50.5428766,38.6419026 Z M50.5428766,17.1174462 L50.5428766,5.65991534 L0.165,5.65991534 L0.165,60.8651822 C0.165,63.3964358 11.4375929,65.4453782 25.3476494,65.4453782 C39.2567384,65.4453782 50.5293313,63.3964358 50.5293313,60.8651822 L50.5293313,60.8625418 L50.5428766,60.8625418 L50.5428766,45.2384761 C59.0783512,45.2384761 66,38.9420269 66,31.176641 C66,23.4130152 59.0783512,17.1174462 50.5428766,17.1174462 L50.5428766,17.1174462 Z" id="Fill-54" fill="#E96969"></path>
                <path d="M50.5293313,4.9637326 C50.5293313,2.42983866 39.2567384,0.379136029 25.3476494,0.379136029 C11.4375929,0.379136029 0.165,2.42983866 0.165,4.9637326 C0.165,7.49322589 11.4375929,9.54392852 25.3476494,9.54392852 C39.2567384,9.54392852 50.5293313,7.49322589 50.5293313,4.9637326" id="Fill-55" fill="#303332"></path>
            </g>
            <g id="//-MacBook-Grey" transform="translate(495.000000, 248.000000)" sketch:type="MSShapeGroup">
                <g id="::-base" transform="translate(0.000000, 107.487805)">
                    <path d="M1.29787234,0 L183,0 C183,0 177.808511,5.51219512 170.280851,5.51219512 L14.0170213,5.51219512 C6.22978723,5.51219512 1.29787234,0 1.29787234,0 Z" id="Mask" fill="#ABABAB" filter="url(#filter-1)"></path>
                    <rect id="lip" fill="#6F6F6F" x="80.4680851" y="0" width="25.9574468" height="2.75609756"></rect>
                </g>
                <rect id="screen-bg" fill="#3D3D3D" x="20.7659574" y="0" width="145.361702" height="100.597561" rx="3"></rect>
                <rect id="screen-bottom" fill="#4F4F4F" x="20.7659574" y="100.597561" width="145.361702" height="6.8902439"></rect>
                <rect id="macbook-label" fill="#757575" x="85.6595745" y="103.353659" width="15.5744681" height="1.37804878"></rect>
                <g id="::-screen" transform="translate(28.553191, 9.646341)">
                    <rect id="wallpaper" fill="#69D3E9" x="0" y="0" width="129.787234" height="86.8170732"></rect>
                    <path d="M0,0 L81.7659574,0 L0,86.8170732 L0,0 Z" id="glare" fill-opacity="0.12" fill="#FFFFFF"></path>
                </g>
                <ellipse id="webcam" fill="#757575" cx="94.0957447" cy="4.82317073" rx="0.64893617" ry="0.68902439"></ellipse>
            </g>
            <g id="//-iPad-" transform="translate(726.000000, 265.000000)" sketch:type="MSShapeGroup">
                <rect id="main-body" fill="#3D3D3D" x="0" y="0" width="77" height="97" rx="4"></rect>
                <rect id="home-button" stroke="#505050" x="35.6268657" y="89.4555556" width="5.74626866" height="5.38888889" rx="6"></rect>
                <rect id="screen" fill="#69E9B9" x="4.59701493" y="9.7" width="67.8059701" height="77.6"></rect>
                <path d="M4.59701493,9.7 L72.4029851,9.7 L4.59701493,73.2888889 L4.59701493,9.7 Z" id="glare" fill-opacity="0.12" fill="#FFFFFF"></path>
                <rect id="camera" fill="#565656" x="39.0746269" y="3.23333333" width="3.44776119" height="3.23333333" rx="6"></rect>
                <rect id="microphone" fill="#747474" x="35.6268657" y="4.31111111" width="1.14925373" height="1.07777778" rx="6"></rect>
            </g>
            <g id="//-iMac-27" transform="translate(199.000000, 140.000000)">
                <g id="::-stand" transform="translate(90.000000, 183.000000)">
                    <rect id="Rectangle-80" fill="#B2B2B2" sketch:type="MSShapeGroup" x="0" y="40" width="80" height="2"></rect>
                    <path d="M0.611577718,38.3946085 C0.904995246,37.6243875 1.81470163,37 2.64309958,37 L77.3569004,37 C78.1854614,37 79.0995135,37.6362228 79.3884223,38.3946085 L80,40 L-6.34413157e-17,40 L0.611577718,38.3946085 Z" id="Rectangle-77" fill="#C3C3C3" sketch:type="MSShapeGroup"></path>
                    <mask id="mask-3" sketch:name="Mask" fill="white">
                        <use xlink:href="#path-2"></use>
                    </mask>
                    <use id="Mask" fill="#D8D8D8" sketch:type="MSShapeGroup" xlink:href="#path-2"></use>
                    <rect id="Rectangle-77" fill="#C1C1C1" sketch:type="MSShapeGroup" mask="url(#mask-3)" x="10" y="13" width="60" height="2"></rect>
                </g>
                <g id="::-base" sketch:type="MSShapeGroup">
                    <rect id="screen-bg" fill="#D8D8D8" x="0" y="170" width="260" height="26"></rect>
                    <rect id="dark-bezel" fill="#3C3C3C" x="0" y="0" width="260" height="170" rx="6"></rect>
                    <path d="M129.259614,180.591306 C129.604643,180.723229 130.137389,180.898737 130.137389,180.898737 L131.314726,180.50051 C131.314726,180.50051 131.659002,180.403927 131.971348,180.403927 C132.283694,180.403927 132.992106,180.578503 133.307662,180.808159 C133.623219,181.037815 133.8876,181.39654 133.8876,181.39654 C133.8876,181.39654 133.189435,181.813893 132.980114,182.425424 C132.770794,183.036955 132.810414,183.247028 132.810414,183.247028 C132.810414,183.247028 132.795173,184.177604 133.295453,184.698181 C133.795733,185.218757 134.144112,185.336746 134.144112,185.336746 C134.144112,185.336746 133.959527,186.012118 133.608711,186.538898 C133.257894,187.065678 133.018823,187.370651 133.018823,187.370651 C133.018823,187.370651 132.61362,187.813928 132.306586,187.906607 C131.999552,187.999286 132.109237,187.991735 131.957989,187.991735 C131.806742,187.991735 131.493643,187.925219 131.493643,187.925219 L130.889267,187.703094 C130.889267,187.703094 130.53409,187.592775 130.287547,187.592775 C130.041004,187.592775 129.576994,187.72452 129.576994,187.72452 C129.576994,187.72452 129.081827,187.913208 128.927171,187.952471 C128.772514,187.991735 128.653355,188 128.596234,188 C128.539112,188 128.335757,187.997741 128.138071,187.881812 C127.940385,187.765884 127.705833,187.616242 127.366453,187.168446 C127.027072,186.720649 126.277236,185.659597 126.053427,184.150391 C125.829618,182.641186 126.381352,181.775957 126.381352,181.775957 C126.381352,181.775957 127.023663,180.455419 128.50189,180.429673 C128.802259,180.424442 128.914585,180.459384 129.259614,180.591306 Z M130.066532,180.305639 C130.066532,180.305639 129.956768,179.368998 130.643279,178.72181 C131.329789,178.074623 132.073184,178 132.073184,178 C132.073184,178 132.225582,178.594387 131.648299,179.481219 C131.071016,180.368052 130.066532,180.305639 130.066532,180.305639 Z" id="logo" fill="#464646"></path>
                    <rect id="camera-on-light" fill="#61FFB2" x="135" y="6" width="2" height="2" rx="6"></rect>
                    <rect id="camera" fill="#5C5C5C" x="128" y="5" width="4" height="4" rx="6"></rect>
                    <rect id="microphone" fill="#545454" x="122.549429" y="6" width="2" height="2" rx="6"></rect>
                </g>
                <g id="::-screen" transform="translate(14.000000, 14.000000)" sketch:type="MSShapeGroup">
                    <rect id="Rectangle-71" fill="#E96969" x="0" y="0" width="232" height="142"></rect>
                    <path d="M0,0 L141,0 L0,141 L0,0 Z" id="glare" fill-opacity="0.12" fill="#FFFFFF"></path>
                </g>
            </g>
            <g id="//-iPhone-6" transform="translate(843.000000, 295.000000)" sketch:type="MSShapeGroup">
                <rect id="main-body" fill="#3D3D3D" x="0" y="0" width="39" height="66" rx="2"></rect>
                <rect id="home-button" stroke="#6A6A6A" x="17.3333333" y="59.6538462" width="4.33333333" height="3.80769231" rx="6"></rect>
                <rect id="screen" fill="#E9C069" x="2.88888889" y="8.88461538" width="33.2222222" height="48.2307692"></rect>
                <path d="M2.88888889,8.88461538 L36.1111111,8.88461538 L2.88888889,38.0769231 L2.88888889,8.88461538 Z" id="glare" fill-opacity="0.12" fill="#FFFFFF"></path>
                <rect id="microphone" fill="#A1A1A1" x="13" y="3.80769231" width="1.44444444" height="1.26923077" rx="6"></rect>
                <rect id="Rectangle-267" fill="#121212" x="15.8888889" y="3.80769231" width="7.22222222" height="1.26923077"></rect>
            </g>
        </g>
    </g>
</svg>